<svg width="889" height="72" viewBox="0 0 889 72" fill="none" xmlns="http://www.w3.org/2000/svg">
<path d="M99.2065 70.752V1.63196H111.687V70.752H99.2065ZM144.423 70.752V1.63196H156.903V70.752H144.423ZM105.159 29.856H150.087V39.648H105.159V29.856Z" fill="black"/>
<path d="M187.681 71.712C182.497 71.712 177.921 70.624 173.953 68.448C170.049 66.272 167.009 63.264 164.833 59.424C162.657 55.52 161.569 51.072 161.569 46.08C161.569 41.088 162.657 36.704 164.833 32.928C167.009 29.152 170.049 26.208 173.953 24.096C177.921 21.92 182.497 20.832 187.681 20.832C192.929 20.832 197.505 21.92 201.409 24.096C205.313 26.208 208.353 29.152 210.529 32.928C212.705 36.704 213.793 41.088 213.793 46.08C213.793 51.072 212.673 55.52 210.433 59.424C208.257 63.264 205.217 66.272 201.313 68.448C197.409 70.624 192.865 71.712 187.681 71.712ZM187.681 62.016C190.241 62.016 192.545 61.376 194.593 60.096C196.641 58.752 198.241 56.896 199.393 54.528C200.545 52.096 201.121 49.248 201.121 45.984C201.121 41.184 199.841 37.408 197.281 34.656C194.785 31.904 191.585 30.528 187.681 30.528C183.777 30.528 180.545 31.904 177.985 34.656C175.425 37.408 174.145 41.184 174.145 45.984C174.145 49.248 174.721 52.096 175.873 54.528C177.089 56.896 178.689 58.752 180.673 60.096C182.721 61.376 185.057 62.016 187.681 62.016Z" fill="black"/>
<path d="M218.85 70.752V21.792H230.658V33.312H230.946V70.752H218.85ZM251.778 70.752V39.168C251.778 36.288 251.042 34.176 249.57 32.832C248.162 31.424 246.146 30.72 243.522 30.72C241.218 30.72 239.106 31.264 237.186 32.352C235.266 33.44 233.73 34.976 232.578 36.96C231.49 38.944 230.946 41.248 230.946 43.872L229.698 32.64C231.362 29.056 233.762 26.208 236.898 24.096C240.034 21.92 243.682 20.832 247.842 20.832C252.834 20.832 256.77 22.272 259.65 25.152C262.53 27.968 263.97 31.616 263.97 36.096V70.752H251.778ZM284.706 70.752V39.168C284.706 36.288 284.002 34.176 282.594 32.832C281.186 31.424 279.17 30.72 276.546 30.72C274.178 30.72 272.034 31.264 270.114 32.352C268.194 33.44 266.69 34.976 265.602 36.96C264.514 38.944 263.97 41.248 263.97 43.872L261.858 32.64C263.458 29.056 265.89 26.208 269.154 24.096C272.418 21.92 276.194 20.832 280.482 20.832C285.602 20.832 289.602 22.304 292.482 25.248C295.426 28.128 296.898 31.968 296.898 36.768V70.752H284.706Z" fill="black"/>
<path d="M327.369 71.712C322.185 71.712 317.641 70.624 313.737 68.448C309.897 66.272 306.889 63.264 304.713 59.424C302.601 55.584 301.545 51.168 301.545 46.176C301.545 41.184 302.601 36.8 304.713 33.024C306.889 29.184 309.897 26.208 313.737 24.096C317.577 21.92 322.057 20.832 327.177 20.832C332.041 20.832 336.265 21.856 339.849 23.904C343.433 25.888 346.217 28.704 348.201 32.352C350.185 36 351.177 40.256 351.177 45.12C351.177 46.016 351.145 46.848 351.081 47.616C351.017 48.384 350.921 49.152 350.793 49.92H309.033V41.472H341.481L338.985 43.776C338.985 39.168 337.929 35.712 335.817 33.408C333.705 31.104 330.761 29.952 326.985 29.952C322.889 29.952 319.625 31.36 317.193 34.176C314.825 36.992 313.641 41.056 313.641 46.368C313.641 51.616 314.825 55.648 317.193 58.464C319.625 61.216 323.049 62.592 327.465 62.592C330.025 62.592 332.265 62.112 334.185 61.152C336.105 60.192 337.513 58.72 338.409 56.736H349.833C348.233 61.344 345.513 64.992 341.673 67.68C337.897 70.368 333.129 71.712 327.369 71.712Z" fill="black"/>
<path d="M397.416 71.616C388.712 71.616 381.768 69.632 376.584 65.664C371.464 61.632 368.456 55.968 367.56 48.672H379.56C380.136 52.896 382.024 56.192 385.224 58.56C388.424 60.864 392.616 62.016 397.8 62.016C402.088 62.016 405.352 61.248 407.592 59.712C409.896 58.112 411.048 55.904 411.048 53.088C411.048 50.592 410.344 48.576 408.936 47.04C407.528 45.504 405.16 44.256 401.832 43.296L389.352 39.552C383.016 37.632 378.344 35.104 375.336 31.968C372.392 28.832 370.92 24.896 370.92 20.16C370.92 16.192 371.944 12.736 373.992 9.79196C376.04 6.84796 378.92 4.57596 382.632 2.97596C386.408 1.37596 390.792 0.57596 395.784 0.57596C403.464 0.57596 409.576 2.46396 414.12 6.23996C418.728 9.95196 421.352 15.008 421.992 21.408H409.992C409.288 17.568 407.688 14.752 405.192 12.96C402.696 11.104 399.336 10.176 395.112 10.176C391.4 10.176 388.456 10.912 386.28 12.384C384.104 13.856 383.016 15.872 383.016 18.432C383.016 20.544 383.656 22.336 384.936 23.808C386.28 25.28 388.744 26.56 392.328 27.648L405 31.488C411.336 33.344 415.944 35.872 418.824 39.072C421.704 42.272 423.144 46.336 423.144 51.264C423.144 57.792 420.872 62.816 416.328 66.336C411.848 69.856 405.544 71.616 397.416 71.616Z" fill="black"/>
<path d="M450.193 71.712C445.009 71.712 440.465 70.624 436.561 68.448C432.721 66.272 429.713 63.264 427.537 59.424C425.425 55.584 424.369 51.168 424.369 46.176C424.369 41.184 425.425 36.8 427.537 33.024C429.713 29.184 432.721 26.208 436.561 24.096C440.401 21.92 444.881 20.832 450.001 20.832C454.865 20.832 459.089 21.856 462.673 23.904C466.257 25.888 469.041 28.704 471.025 32.352C473.009 36 474.001 40.256 474.001 45.12C474.001 46.016 473.969 46.848 473.905 47.616C473.841 48.384 473.745 49.152 473.617 49.92H431.857V41.472H464.305L461.809 43.776C461.809 39.168 460.753 35.712 458.641 33.408C456.529 31.104 453.585 29.952 449.809 29.952C445.713 29.952 442.449 31.36 440.017 34.176C437.649 36.992 436.465 41.056 436.465 46.368C436.465 51.616 437.649 55.648 440.017 58.464C442.449 61.216 445.873 62.592 450.289 62.592C452.849 62.592 455.089 62.112 457.009 61.152C458.929 60.192 460.337 58.72 461.233 56.736H472.657C471.057 61.344 468.337 64.992 464.497 67.68C460.721 70.368 455.953 71.712 450.193 71.712Z" fill="black"/>
<path d="M479.213 70.752V21.792H491.021V33.6H491.309V70.752H479.213ZM491.309 45.216L490.061 33.6C491.213 29.44 493.165 26.272 495.917 24.096C498.669 21.92 501.965 20.832 505.805 20.832C507.149 20.832 508.109 20.96 508.685 21.216V32.64C508.365 32.512 507.917 32.448 507.341 32.448C506.765 32.384 506.061 32.352 505.229 32.352C500.557 32.352 497.069 33.376 494.765 35.424C492.461 37.472 491.309 40.736 491.309 45.216Z" fill="black"/>
<path d="M527.63 70.752L511 21.408L521.5 21.216L536.75 66.816H530.318L546 21.216L556.5 21.408L538.958 70.752H527.63Z" fill="black"/>
<path d="M560.877 70.752V21.408H572.973V70.752H560.877ZM560.301 13.344V0H573.453V13.344H560.301Z" fill="black"/>
<path d="M603.003 71.712C598.075 71.712 593.723 70.624 589.947 68.448C586.235 66.272 583.291 63.264 581.115 59.424C579.003 55.52 577.947 51.104 577.947 46.176C577.947 41.248 579.003 36.896 581.115 33.12C583.291 29.28 586.235 26.272 589.947 24.096C593.723 21.92 598.075 20.832 603.003 20.832C607.035 20.832 610.683 21.6 613.947 23.136C617.211 24.608 619.899 26.72 622.011 29.472C624.123 32.16 625.467 35.296 626.043 38.88H614.427C613.723 36.256 612.379 34.208 610.395 32.736C608.411 31.264 606.011 30.528 603.195 30.528C600.571 30.528 598.299 31.168 596.379 32.448C594.523 33.728 593.083 35.552 592.059 37.92C591.035 40.288 590.523 43.04 590.523 46.176C590.523 49.376 591.035 52.16 592.059 54.528C593.083 56.896 594.555 58.752 596.475 60.096C598.395 61.376 600.635 62.016 603.195 62.016C606.011 62.016 608.411 61.28 610.395 59.808C612.379 58.336 613.723 56.288 614.427 53.664H626.043C625.467 57.248 624.091 60.416 621.915 63.168C619.803 65.856 617.115 67.968 613.851 69.504C610.651 70.976 607.035 71.712 603.003 71.712Z" fill="black"/>
<path d="M652.618 71.712C647.434 71.712 642.89 70.624 638.986 68.448C635.146 66.272 632.138 63.264 629.962 59.424C627.85 55.584 626.794 51.168 626.794 46.176C626.794 41.184 627.85 36.8 629.962 33.024C632.138 29.184 635.146 26.208 638.986 24.096C642.826 21.92 647.306 20.832 652.426 20.832C657.29 20.832 661.514 21.856 665.098 23.904C668.682 25.888 671.466 28.704 673.45 32.352C675.434 36 676.426 40.256 676.426 45.12C676.426 46.016 676.394 46.848 676.33 47.616C676.266 48.384 676.17 49.152 676.042 49.92H634.282V41.472H666.73L664.234 43.776C664.234 39.168 663.178 35.712 661.066 33.408C658.954 31.104 656.01 29.952 652.234 29.952C648.138 29.952 644.874 31.36 642.442 34.176C640.074 36.992 638.89 41.056 638.89 46.368C638.89 51.616 640.074 55.648 642.442 58.464C644.874 61.216 648.298 62.592 652.714 62.592C655.274 62.592 657.514 62.112 659.434 61.152C661.354 60.192 662.762 58.72 663.658 56.736H675.082C673.482 61.344 670.762 64.992 666.922 67.68C663.146 70.368 658.378 71.712 652.618 71.712Z" fill="black"/>
<path d="M703.464 70.752V60.768H721.32C726.568 60.768 731.048 59.712 734.76 57.6C738.472 55.488 741.288 52.544 743.208 48.768C745.192 44.992 746.184 40.672 746.184 35.808C746.184 31.008 745.192 26.784 743.208 23.136C741.288 19.488 738.472 16.672 734.76 14.688C731.112 12.64 726.632 11.616 721.32 11.616H703.656V1.63196H721.32C728.872 1.63196 735.464 3.03996 741.096 5.85596C746.728 8.67196 751.08 12.672 754.152 17.856C757.288 22.976 758.856 29.024 758.856 36C758.856 42.976 757.288 49.088 754.152 54.336C751.016 59.52 746.632 63.552 741 66.432C735.432 69.312 728.904 70.752 721.416 70.752H703.464ZM695.88 70.752V1.63196H708.36V70.752H695.88Z" fill="black"/>
<path d="M794.392 70.752C794.072 69.472 793.816 68.064 793.624 66.528C793.496 64.992 793.432 63.136 793.432 60.96H793.048V37.728C793.048 35.168 792.312 33.248 790.84 31.968C789.432 30.624 787.256 29.952 784.312 29.952C781.432 29.952 779.128 30.496 777.4 31.584C775.736 32.608 774.712 34.112 774.328 36.096H762.712C763.224 31.552 765.4 27.872 769.24 25.056C773.08 22.24 778.232 20.832 784.696 20.832C791.416 20.832 796.504 22.368 799.96 25.44C803.416 28.448 805.144 32.896 805.144 38.784V60.96C805.144 62.496 805.24 64.064 805.432 65.664C805.688 67.264 806.04 68.96 806.488 70.752H794.392ZM777.4 71.712C772.472 71.712 768.536 70.496 765.592 68.064C762.712 65.568 761.272 62.24 761.272 58.08C761.272 53.6 762.904 50.048 766.168 47.424C769.432 44.8 774.04 43.04 779.992 42.144L795.256 39.84V47.52L782.008 49.536C779.128 49.984 776.952 50.784 775.48 51.936C774.072 53.088 773.368 54.688 773.368 56.736C773.368 58.592 774.04 60.032 775.384 61.056C776.728 62.016 778.584 62.496 780.952 62.496C784.408 62.496 787.288 61.632 789.592 59.904C791.896 58.176 793.048 56.064 793.048 53.568L794.392 60.96C793.112 64.48 791 67.168 788.056 69.024C785.176 70.816 781.624 71.712 777.4 71.712Z" fill="black"/>
<path d="M832.914 71.712C826.898 71.712 822.45 70.304 819.57 67.488C816.754 64.608 815.346 60.32 815.346 54.624V10.656L827.538 6.14396V54.912C827.538 57.28 828.178 59.04 829.458 60.192C830.738 61.344 832.754 61.92 835.506 61.92C836.594 61.92 837.554 61.856 838.386 61.728C839.282 61.536 840.114 61.312 840.882 61.056V70.464C840.114 70.848 839.026 71.136 837.618 71.328C836.21 71.584 834.642 71.712 832.914 71.712ZM805.938 31.296V21.792H840.882V31.296H805.938Z" fill="black"/>
<path d="M875.962 70.752C875.642 69.472 875.386 68.064 875.194 66.528C875.066 64.992 875.002 63.136 875.002 60.96H874.618V37.728C874.618 35.168 873.882 33.248 872.41 31.968C871.002 30.624 868.826 29.952 865.882 29.952C863.002 29.952 860.698 30.496 858.97 31.584C857.306 32.608 856.282 34.112 855.898 36.096H844.282C844.794 31.552 846.97 27.872 850.81 25.056C854.65 22.24 859.802 20.832 866.266 20.832C872.986 20.832 878.074 22.368 881.53 25.44C884.986 28.448 886.714 32.896 886.714 38.784V60.96C886.714 62.496 886.81 64.064 887.002 65.664C887.258 67.264 887.61 68.96 888.058 70.752H875.962ZM858.97 71.712C854.042 71.712 850.106 70.496 847.162 68.064C844.282 65.568 842.842 62.24 842.842 58.08C842.842 53.6 844.474 50.048 847.738 47.424C851.002 44.8 855.61 43.04 861.562 42.144L876.826 39.84V47.52L863.578 49.536C860.698 49.984 858.522 50.784 857.05 51.936C855.642 53.088 854.938 54.688 854.938 56.736C854.938 58.592 855.61 60.032 856.954 61.056C858.298 62.016 860.154 62.496 862.522 62.496C865.978 62.496 868.858 61.632 871.162 59.904C873.466 58.176 874.618 56.064 874.618 53.568L875.962 60.96C874.682 64.48 872.57 67.168 869.626 69.024C866.746 70.816 863.194 71.712 858.97 71.712Z" fill="black"/>
<path d="M32.8767 1.75204H4.10959C1.83993 1.75204 0 3.56895 0 5.81023V67.4338C0 69.6751 1.83993 71.492 4.10959 71.492H32.8767C35.1464 71.492 36.9863 69.6751 36.9863 67.4338V5.81023C36.9863 3.56895 35.1464 1.75204 32.8767 1.75204Z" fill="#0000D4"/>
<path d="M70.8904 1.75204H69.863C67.5934 1.75204 65.7534 3.56895 65.7534 5.81023V67.4338C65.7534 69.6751 67.5934 71.492 69.863 71.492H70.8904C73.1601 71.492 75 69.6751 75 67.4338V5.81023C75 3.56895 73.1601 1.75204 70.8904 1.75204Z" fill="#0000D4"/>
<path d="M56.5069 1.75204H46.2329C43.9632 1.75204 42.1233 3.56895 42.1233 5.81023V67.4338C42.1233 69.6751 43.9632 71.492 46.2329 71.492H56.5069C58.7765 71.492 60.6164 69.6751 60.6164 67.4338V5.81023C60.6164 3.56895 58.7765 1.75204 56.5069 1.75204Z" fill="#0000D4"/>
</svg>
